<?xml version="1.0" standalone="no"?>
<!DOCTYPE svg PUBLIC "-//W3C//DTD SVG 20010904//EN"
 "http://www.w3.org/TR/2001/REC-SVG-20010904/DTD/svg10.dtd">
<svg version="1.0" xmlns="http://www.w3.org/2000/svg"
 width="1080.000000pt" height="1080.000000pt" viewBox="0 0 1080.000000 1080.000000"
 preserveAspectRatio="xMidYMid meet">
<metadata>
Created by potrace 1.14, written by Peter Selinger 2001-2017
</metadata>
<g transform="translate(0.000000,1080.000000) scale(0.100000,-0.100000)"
fill="#000000" stroke="none">
<path d="M4507 9240 c-21 -4 -43 -12 -49 -18 -6 -6 -11 -62 -12 -134 -3 -145
-21 -208 -112 -391 -66 -132 -94 -173 -188 -286 -68 -81 -73 -85 -201 -146
-183 -88 -262 -169 -328 -335 -33 -84 -46 -140 -60 -268 l-12 -104 -53 -18
c-115 -41 -200 -110 -280 -227 -68 -100 -56 -129 68 -164 41 -11 79 -23 86
-27 9 -5 -9 -25 -52 -61 -180 -147 -372 -425 -419 -606 -55 -209 -4 -643 133
-1121 l28 -101 -45 -26 c-68 -38 -174 -133 -236 -212 -146 -184 -223 -450
-195 -678 40 -340 217 -599 509 -747 80 -40 235 -80 311 -80 l57 0 27 -50 c53
-97 265 -408 413 -605 191 -254 336 -427 487 -583 165 -170 266 -234 521 -334
55 -21 109 -43 120 -47 127 -55 952 -261 1210 -302 113 -18 331 -16 436 4 569
111 936 606 1132 1527 20 91 54 282 77 425 22 143 53 321 67 395 36 181 35
273 -5 470 -23 118 -32 193 -36 315 -17 489 -169 969 -432 1359 l-33 49 49 54
c136 149 165 329 131 818 -11 160 -11 232 -2 360 20 267 70 571 148 899 28
118 33 153 24 172 -20 44 -51 41 -186 -20 -69 -31 -155 -63 -192 -72 -128 -29
-553 -13 -657 26 -67 26 -124 81 -177 172 -21 37 -58 101 -81 141 -88 152
-194 228 -368 263 -103 20 -261 15 -361 -14 l-66 -18 -84 67 c-211 170 -402
253 -641 279 -109 11 -412 12 -471 0z m1224 -2386 c136 -68 290 -104 451 -104
70 0 88 -4 175 -43 600 -264 1071 -842 1237 -1518 41 -166 56 -280 66 -499 8
-161 16 -236 40 -349 35 -168 37 -216 11 -337 -10 -49 -31 -173 -47 -276 -16
-104 -32 -188 -35 -188 -4 0 -12 13 -19 29 -6 16 -20 37 -31 47 -29 26 -35 -5
-9 -50 44 -74 51 -117 33 -216 -14 -78 -19 -90 -34 -85 -26 9 -34 -13 -13 -36
18 -20 18 -24 -4 -127 -32 -152 -51 -212 -68 -212 -16 0 -19 -21 -5 -35 6 -6
-3 -48 -21 -107 -31 -95 -31 -96 -49 -75 -24 30 -36 14 -20 -26 19 -46 17 -56
-30 -157 l-42 -91 -22 21 c-12 11 -24 20 -28 20 -14 0 -6 -35 13 -55 l20 -21
-41 -70 c-23 -38 -49 -77 -57 -87 -15 -16 -16 -16 -38 4 -27 26 -42 9 -20 -23
9 -12 16 -28 16 -34 0 -7 -35 -47 -77 -90 l-76 -79 -16 50 c-10 31 -22 50 -31
50 -16 0 -16 -8 0 -75 10 -41 9 -45 -12 -62 -28 -21 -152 -88 -164 -88 -5 0
-9 20 -9 45 0 61 -18 58 -30 -6 -11 -58 -27 -70 -110 -83 l-41 -7 4 39 c2 23
-1 43 -8 47 -17 10 -23 0 -29 -48 l-6 -42 -66 -3 c-60 -3 -67 -1 -72 18 -7 26
-27 26 -34 -1 -5 -18 -11 -20 -62 -13 -108 12 -182 31 -196 50 -12 16 -16 17
-24 5 -7 -11 -37 -7 -172 23 -90 20 -231 54 -314 74 l-149 38 3 50 c1 27 13
73 27 103 22 49 24 71 5 71 -18 0 -63 -103 -68 -156 l-6 -55 -31 6 c-80 17
-460 151 -550 194 -139 67 -208 122 -352 280 -120 132 -123 137 -108 159 9 13
13 31 9 39 -5 14 -9 13 -28 -6 l-23 -21 -106 132 c-215 271 -432 581 -556 798
-33 58 -71 114 -85 124 -21 16 -46 19 -139 22 -128 2 -187 17 -293 72 -94 49
-208 163 -257 257 -64 123 -83 203 -83 345 0 143 19 222 83 345 44 84 153 199
232 243 l55 32 155 0 155 0 173 -557 c95 -306 180 -565 189 -575 16 -18 63
-24 77 -10 4 4 18 7 29 7 19 0 23 7 28 60 3 33 16 80 28 104 31 59 13 77 -24
24 l-27 -38 6 149 c5 113 10 156 22 175 15 22 15 26 1 36 -17 12 -17 -4 8 355
29 403 61 516 208 733 72 105 83 137 126 357 32 164 50 320 57 511 l7 176 125
62 c68 34 164 86 213 116 151 90 334 139 644 169 22 2 95 3 162 1 108 -3 127
-7 174 -31z"/>
<path d="M5237 6156 c-108 -45 -202 -133 -301 -280 -72 -109 -90 -150 -75
-178 16 -30 28 -38 62 -38 22 0 33 9 55 46 66 114 111 174 177 240 146 145
259 147 406 7 59 -56 140 -165 178 -240 31 -63 91 -73 121 -20 14 26 13 30
-19 92 -78 152 -208 294 -325 356 -51 28 -74 33 -141 36 -67 3 -89 0 -138 -21z"/>
<path d="M6623 6166 c-118 -39 -255 -172 -361 -352 -46 -77 -52 -112 -23 -138
29 -26 72 -17 96 21 11 17 40 64 65 104 58 93 161 198 225 229 140 68 283 -10
424 -231 33 -52 67 -104 76 -116 32 -45 105 -18 105 38 0 28 -62 136 -126 219
-63 83 -162 171 -229 204 -71 35 -183 45 -252 22z"/>
<path d="M5307 5621 c-61 -40 -97 -120 -97 -216 0 -261 229 -339 308 -106 16
46 15 148 -2 204 -34 113 -132 169 -209 118z m73 -101 c22 -12 34 -55 21 -79
-13 -23 -55 -35 -80 -22 -38 21 -36 85 3 101 28 12 34 12 56 0z"/>
<path d="M6687 5621 c-61 -40 -97 -120 -97 -216 0 -261 229 -339 308 -106 16
46 15 148 -2 204 -34 113 -132 169 -209 118z m73 -101 c22 -12 34 -55 21 -79
-13 -23 -55 -35 -80 -22 -38 21 -36 85 3 101 28 12 34 12 56 0z"/>
<path d="M6087 5223 c-15 -14 -4 -47 74 -229 145 -340 180 -404 265 -496 126
-136 151 -188 130 -267 -17 -66 -55 -115 -119 -151 -67 -39 -193 -78 -282 -88
-56 -6 -70 -11 -73 -25 -2 -10 2 -25 10 -34 11 -13 30 -15 128 -10 123 7 242
32 311 67 63 33 133 108 152 165 20 57 21 155 3 206 -20 56 -61 103 -163 186
-122 99 -153 152 -361 616 -22 48 -36 67 -50 67 -10 0 -22 -3 -25 -7z"/>
<path d="M3244 4661 c-45 -27 -64 -59 -64 -105 0 -54 79 -355 102 -388 22 -32
77 -52 118 -43 40 9 88 58 95 98 4 22 -8 90 -39 211 -38 153 -49 183 -74 208
-38 39 -95 47 -138 19z"/>
<path d="M4530 4414 c0 -8 27 -76 60 -150 32 -74 76 -178 96 -232 33 -88 35
-100 24 -127 -16 -36 -19 -99 -5 -103 5 -2 14 14 21 35 11 38 11 38 21 13 35
-86 49 -350 33 -650 -5 -90 -4 -95 15 -95 18 0 21 10 30 90 6 50 14 97 17 105
4 8 9 28 13 44 3 17 16 43 27 59 16 22 18 31 9 40 -9 9 -16 6 -30 -12 -17 -23
-18 -20 -25 118 -3 77 -13 175 -21 217 -20 107 -84 287 -172 490 -59 137 -79
174 -94 174 -11 0 -19 -7 -19 -16z"/>
<path d="M4144 4345 c-18 -24 -28 -49 -28 -73 -1 -50 16 -52 31 -4 6 22 19 52
29 66 12 19 14 30 7 37 -7 7 -19 -1 -39 -26z"/>
<path d="M4278 4243 c-28 -33 -38 -61 -38 -111 0 -34 5 -52 14 -55 21 -8 27 3
20 39 -4 22 1 47 15 80 22 50 16 77 -11 47z"/>
<path d="M4425 4102 c-29 -44 -39 -117 -15 -117 9 0 17 14 21 38 3 21 16 51
28 68 21 28 21 49 1 49 -6 0 -21 -17 -35 -38z"/>
<path d="M7454 4058 c8 -66 17 -85 35 -74 7 5 9 24 5 49 -10 74 -14 87 -30 87
-14 0 -16 -9 -10 -62z"/>
<path d="M4246 3937 c-28 -36 -42 -87 -32 -113 9 -25 36 2 36 36 0 15 9 39 20
53 22 28 25 43 11 52 -5 3 -21 -10 -35 -28z"/>
<path d="M7576 3962 c-3 -5 -2 -38 2 -73 6 -51 11 -64 25 -67 17 -4 18 2 12
65 -4 37 -9 71 -12 76 -6 10 -21 9 -27 -1z"/>
<path d="M4899 3849 c-26 -37 -36 -107 -20 -138 18 -33 31 -15 31 43 0 30 6
60 15 72 16 21 20 54 6 54 -5 0 -20 -14 -32 -31z"/>
<path d="M4086 3818 c-38 -58 -64 -169 -47 -197 15 -24 28 -3 34 52 3 30 15
73 26 95 23 44 27 72 11 72 -5 0 -16 -10 -24 -22z"/>
<path d="M5810 3809 c-50 -22 -100 -66 -100 -86 0 -19 18 -16 43 8 12 12 46
33 75 46 48 22 62 42 36 50 -5 1 -29 -7 -54 -18z"/>
<path d="M6425 3819 c-4 -6 -4 -13 -1 -17 13 -12 157 -49 162 -41 10 17 -7 29
-72 49 -76 23 -81 24 -89 9z"/>
<path d="M4584 3785 c-18 -24 -28 -49 -28 -73 -1 -46 16 -57 27 -17 12 40 24
66 39 87 9 13 10 20 1 29 -8 8 -18 1 -39 -26z"/>
<path d="M6043 3800 c-31 -18 -41 -39 -27 -52 8 -8 79 41 79 54 0 19 -19 19
-52 -2z"/>
<path d="M7430 3814 c0 -5 12 -45 28 -91 26 -79 47 -108 58 -79 8 22 -51 171
-69 174 -9 2 -17 0 -17 -4z"/>
<path d="M4441 3774 c-26 -33 -46 -97 -37 -119 10 -27 30 -11 37 29 3 20 16
50 28 67 35 48 8 69 -28 23z"/>
<path d="M6697 3753 c-14 -14 -5 -23 42 -44 27 -11 59 -32 72 -45 25 -27 49
-32 49 -10 0 34 -142 121 -163 99z"/>
<path d="M5463 3720 c-33 -20 -41 -34 -24 -45 13 -7 83 35 78 48 -6 18 -21 18
-54 -3z"/>
<path d="M6236 3705 c-45 -16 -61 -29 -52 -43 9 -15 111 21 111 38 0 19 -15
21 -59 5z"/>
<path d="M6405 3700 c-8 -13 3 -30 19 -30 7 0 21 -9 31 -20 10 -11 22 -17 26
-14 18 11 8 35 -23 54 -38 23 -44 24 -53 10z"/>
<path d="M6924 3699 c-8 -13 42 -59 64 -59 24 0 8 33 -25 52 -23 14 -33 16
-39 7z"/>
<path d="M5290 3650 c-22 -24 -40 -49 -40 -57 0 -26 26 -12 64 33 28 33 35 49
27 57 -8 8 -22 -1 -51 -33z"/>
<path d="M5792 3663 c-42 -15 -51 -35 -20 -41 24 -5 90 26 86 40 -6 18 -19 18
-66 1z"/>
<path d="M5051 3635 c-29 -49 -43 -104 -39 -150 5 -61 20 -48 34 28 7 37 22
83 34 102 20 32 20 55 0 55 -4 0 -17 -16 -29 -35z"/>
<path d="M4276 3610 c-28 -34 -40 -66 -34 -99 5 -34 21 -26 34 19 7 22 20 52
29 66 26 41 3 52 -29 14z"/>
<path d="M5983 3621 c-36 -9 -83 -37 -83 -50 0 -18 14 -19 43 -5 16 9 51 19
76 23 31 4 46 11 46 21 0 17 -35 22 -82 11z"/>
<path d="M5577 3594 c-37 -25 -45 -38 -29 -48 10 -6 82 41 82 54 0 20 -19 18
-53 -6z"/>
<path d="M6987 3603 c-4 -3 -7 -10 -7 -14 0 -12 72 -59 82 -53 17 11 7 30 -27
52 -39 25 -39 25 -48 15z"/>
<path d="M7205 3581 c-6 -11 47 -51 69 -51 24 0 19 16 -10 39 -29 23 -49 27
-59 12z"/>
<path d="M5412 3509 c-51 -26 -112 -101 -112 -139 0 -36 31 -62 67 -58 26 3
31 -3 79 -98 28 -55 75 -136 105 -179 54 -78 66 -97 79 -125 4 -8 17 -20 30
-26 12 -7 43 -32 69 -56 64 -62 104 -90 187 -132 95 -48 178 -66 299 -66 208
0 337 51 478 189 91 89 176 216 263 393 38 78 50 88 107 88 60 0 92 83 44 114
-20 14 -39 13 -177 -5 -105 -14 -240 -22 -420 -26 -284 -6 -389 2 -767 52
-100 14 -184 25 -187 25 -3 0 -6 8 -6 18 0 27 -32 52 -66 52 -16 0 -48 -10
-72 -21z m392 -214 c367 -46 608 -55 901 -35 71 5 131 7 133 5 5 -4 -86 -175
-108 -205 l-15 -20 -58 19 c-89 31 -249 51 -403 51 -168 0 -287 -14 -414 -47
-52 -14 -104 -27 -115 -30 -16 -3 -30 11 -71 74 -29 43 -68 111 -89 152 l-37
74 43 -7 c23 -4 128 -17 233 -31z m591 -315 c99 -10 221 -33 234 -45 8 -9 -42
-55 -103 -96 -89 -59 -178 -83 -311 -83 -150 1 -231 28 -357 123 -27 19 -48
38 -48 42 0 12 176 49 270 58 125 12 192 12 315 1z"/>
<path d="M4612 3478 c-28 -47 -44 -106 -40 -153 4 -58 21 -49 30 15 5 30 19
77 33 104 23 47 24 66 5 66 -5 0 -17 -15 -28 -32z"/>
<path d="M7396 3421 c-6 -10 50 -138 65 -147 24 -15 19 34 -9 92 -30 61 -44
75 -56 55z"/>
<path d="M4410 3328 c-34 -56 -56 -161 -40 -188 14 -23 27 -1 33 53 3 30 15
73 26 95 36 70 20 103 -19 40z"/>
<path d="M4139 3276 c-23 -49 -29 -76 -27 -112 4 -70 25 -67 33 6 4 33 18 81
31 106 23 44 24 64 3 64 -6 0 -24 -29 -40 -64z"/>
<path d="M5125 3248 c-33 -61 -43 -173 -15 -173 11 0 17 16 21 60 3 33 16 79
28 103 20 40 21 62 2 62 -4 0 -21 -23 -36 -52z"/>
<path d="M7354 3186 c-3 -9 2 -28 12 -44 10 -15 25 -52 35 -82 19 -62 46 -76
41 -22 -3 39 -45 134 -67 152 -12 10 -16 9 -21 -4z"/>
<path d="M4698 3152 c-41 -46 -61 -123 -37 -138 15 -9 25 10 33 56 3 21 13 43
21 50 17 14 20 36 6 44 -4 3 -15 -2 -23 -12z"/>
<path d="M4960 3134 c-31 -49 -42 -100 -24 -115 15 -12 17 -9 29 45 3 17 15
42 26 58 19 26 19 48 -1 48 -5 0 -18 -16 -30 -36z"/>
<path d="M4244 3068 c-30 -59 -44 -161 -24 -173 18 -11 30 14 30 63 0 26 10
63 25 93 24 47 26 69 5 69 -6 0 -21 -23 -36 -52z"/>
<path d="M5210 2988 c-26 -43 -34 -90 -23 -125 15 -44 28 -33 33 27 3 31 13
68 23 83 17 27 16 47 -4 47 -5 0 -18 -15 -29 -32z"/>
<path d="M4461 2984 c-39 -49 -52 -134 -22 -134 6 0 13 12 16 28 3 15 15 45
25 67 33 66 21 89 -19 39z"/>
<path d="M4760 2978 c-26 -42 -34 -90 -23 -124 16 -49 33 -40 33 18 0 36 7 64
20 86 20 32 19 52 -1 52 -5 0 -18 -15 -29 -32z"/>
<path d="M7355 2920 c-9 -15 37 -120 52 -120 22 0 22 16 -2 67 -25 54 -40 70
-50 53z"/>
<path d="M4906 2789 c-32 -57 -47 -161 -26 -174 18 -11 30 13 30 60 0 22 11
64 25 93 23 50 25 72 6 72 -4 0 -20 -23 -35 -51z"/>
<path d="M5055 2695 c-18 -29 -25 -55 -23 -77 4 -44 19 -39 34 12 7 22 19 52
28 66 16 24 14 44 -4 44 -5 0 -21 -20 -35 -45z"/>
<path d="M5224 2635 c-32 -66 -40 -170 -14 -170 11 0 17 16 21 60 3 33 16 79
28 103 20 40 21 62 1 62 -5 0 -21 -25 -36 -55z"/>
<path d="M4718 2653 c-8 -10 -21 -28 -27 -40 -15 -30 -14 -108 2 -122 20 -16
28 -2 21 35 -4 22 1 47 15 80 22 50 16 77 -11 47z"/>
<path d="M6387 2473 c-3 -4 0 -37 7 -73 8 -45 16 -65 26 -65 16 0 16 55 1 111
-7 28 -25 42 -34 27z"/>
<path d="M7086 2441 c-9 -14 44 -121 60 -121 21 0 17 24 -11 80 -25 49 -38 60
-49 41z"/>
<path d="M5003 2388 c-6 -7 -20 -32 -32 -56 -27 -54 -34 -157 -11 -157 11 0
17 16 21 56 3 31 17 77 29 103 16 32 20 50 13 57 -7 7 -13 6 -20 -3z"/>
<path d="M6137 2364 c-11 -11 -8 -63 3 -85 20 -36 33 -22 26 28 -6 48 -17 69
-29 57z"/>
<path d="M5168 2343 c-28 -33 -38 -61 -38 -111 0 -34 5 -52 14 -55 21 -8 27 3
20 39 -4 22 1 47 15 80 22 50 16 77 -11 47z"/>
<path d="M6592 2239 c4 -79 23 -81 23 -2 0 37 -4 58 -13 61 -10 3 -12 -11 -10
-59z"/>
<path d="M6305 2248 c-25 -79 -22 -149 5 -122 12 12 29 103 22 122 -5 16 -22
15 -27 0z"/>
<path d="M5965 2138 c-25 -78 -22 -149 5 -122 12 12 30 103 23 121 -6 16 -22
17 -28 1z"/>
<path d="M6440 2118 c1 -28 40 -98 55 -98 20 0 19 8 -5 64 -19 42 -50 63 -50
34z"/>
<path d="M6636 2112 c-3 -5 -1 -36 4 -68 6 -32 10 -62 10 -66 0 -5 7 -8 15 -8
17 0 19 36 7 104 -7 38 -24 57 -36 38z"/>
<path d="M6177 2083 c-5 -9 11 -121 19 -135 21 -33 31 35 15 106 -6 29 -25 45
-34 29z"/>
</g>
</svg>
